<svg width="34" height="30" viewBox="0 0 34 30" fill="none" xmlns="http://www.w3.org/2000/svg">
<path d="M27.0002 13.3333C27.0002 11.735 25.8668 10.3983 24.3652 10.0767C24.9652 9.075 25.3335 7.91667 25.3335 6.66667C25.3335 2.99 22.3435 0 18.6668 0C16.1385 0 13.9652 1.42833 12.8335 3.50667C11.7018 1.42833 9.5285 0 7.00016 0C3.3235 0 0.333496 2.99 0.333496 6.66667C0.333496 8.17 0.853496 9.545 1.69516 10.66C1.27448 10.9676 0.932035 11.3699 0.695497 11.8343C0.458958 12.2987 0.334953 12.8122 0.333496 13.3333V26.6667C0.333496 28.505 1.8285 30 3.66683 30H23.6668C25.5052 30 27.0002 28.505 27.0002 26.6667V22.27L33.6668 25.6033V13.9367L27.0002 17.27V13.3333ZM18.6668 3.33333C20.5052 3.33333 22.0002 4.82833 22.0002 6.66667C22.0002 8.505 20.5052 10 18.6668 10C16.8285 10 15.3335 8.505 15.3335 6.66667C15.3335 4.82833 16.8285 3.33333 18.6668 3.33333ZM7.00016 3.33333C8.8385 3.33333 10.3335 4.82833 10.3335 6.66667C10.3335 8.505 8.8385 10 7.00016 10C5.16183 10 3.66683 8.505 3.66683 6.66667C3.66683 4.82833 5.16183 3.33333 7.00016 3.33333ZM3.66683 26.6667V13.3333H23.6668L23.6702 26.6667H3.66683Z" fill="#247BA0"/>
</svg>
