<svg width="37" height="35" viewBox="0 0 37 35" fill="none" xmlns="http://www.w3.org/2000/svg">
<path d="M29.5762 12.8988C30.9949 12.8981 32.3836 13.304 33.5755 14.0679C34.7675 14.8317 35.7119 15.921 36.2955 17.2048C36.879 18.4886 37.0768 19.9124 36.8651 21.3051C36.6534 22.6978 36.0412 24.0003 35.102 25.0559V33.4679C35.1025 33.7027 35.0422 33.9337 34.927 34.1388C34.8118 34.3438 34.6455 34.5161 34.444 34.639C34.2425 34.762 34.0126 34.8316 33.7762 34.841C33.5399 34.8505 33.3051 34.7995 33.0943 34.6931L32.9285 34.5925L29.5762 32.2664L26.2239 34.5925C26.0303 34.7267 25.8053 34.8094 25.5704 34.8327C25.3354 34.856 25.0983 34.8192 24.8818 34.7256C24.6653 34.6321 24.4766 34.485 24.3336 34.2984C24.1906 34.1119 24.0982 33.892 24.0652 33.6599L24.0523 33.4679V25.0523C23.1144 23.9966 22.5032 22.6947 22.2921 21.3028C22.081 19.9108 22.2789 18.488 22.862 17.2049C23.4452 15.9219 24.3889 14.8331 25.5798 14.0693C26.7708 13.3055 28.1584 12.8991 29.5762 12.8988ZM32.3391 26.998C31.4613 27.3504 30.5231 27.5311 29.5762 27.5301C28.6293 27.5311 27.6912 27.3504 26.8133 26.998V30.8364L28.786 29.4704C28.988 29.3299 29.2241 29.2456 29.47 29.2263C29.7158 29.207 29.9624 29.2534 30.1841 29.3606L30.3682 29.4704L32.3391 30.8364V26.998ZM31.8786 0.105286C33.1685 0.105222 34.4098 0.593714 35.3494 1.47112C36.2889 2.34853 36.8559 3.54875 36.9347 4.82696L36.9439 5.13418L36.9458 14.7275C36.1988 13.7402 35.2591 12.9124 34.1829 12.2935L34.181 5.13418C34.1813 4.56828 33.9701 4.0224 33.5883 3.60217C33.2066 3.18194 32.6814 2.91724 32.1144 2.85929L31.8786 2.84832H5.17075C4.60076 2.84806 4.05093 3.05773 3.62766 3.43674C3.20439 3.81576 2.93777 4.33718 2.8794 4.90011L2.86835 5.13418V22.5067C2.86835 23.6899 3.77458 24.6646 4.93499 24.7798L5.17075 24.7926L21.6044 24.7944L21.8309 25.1656L22.0778 25.5241L22.2085 25.6959L22.2067 27.5356H5.17075C3.88058 27.5356 2.63902 27.0469 1.69942 26.1691C0.759831 25.2913 0.193027 24.0906 0.114679 22.8121L0.105469 22.5067V5.13418C0.105405 3.85357 0.597432 2.62118 1.48119 1.68839C2.36494 0.755589 3.57385 0.192663 4.86131 0.114429L5.17075 0.105286H31.8786ZM29.5762 15.6418C28.3547 15.6418 27.1832 16.1236 26.3195 16.9811C25.4557 17.8387 24.9705 19.0017 24.9705 20.2145C24.9705 21.4272 25.4557 22.5903 26.3195 23.4478C27.1832 24.3053 28.3547 24.7871 29.5762 24.7871C30.7977 24.7871 31.9692 24.3053 32.833 23.4478C33.6967 22.5903 34.1819 21.4272 34.1819 20.2145C34.1819 19.0017 33.6967 17.8387 32.833 16.9811C31.9692 16.1236 30.7977 15.6418 29.5762 15.6418ZM17.1432 17.4705C17.4933 17.4706 17.8302 17.6026 18.0859 17.8399C18.3417 18.0771 18.4972 18.4019 18.5211 18.7485C18.5449 19.0952 18.4353 19.438 18.2145 19.7075C17.9936 19.9771 17.6779 20.1534 17.3311 20.2007L17.1432 20.2135H8.8546C8.50459 20.2134 8.16767 20.0814 7.91192 19.8442C7.65617 19.607 7.50065 19.2822 7.47679 18.9355C7.45294 18.5888 7.56252 18.2461 7.7834 17.9765C8.00428 17.707 8.31998 17.5307 8.66672 17.4833L8.8546 17.4705H17.1432ZM28.1948 7.41272C28.5448 7.41283 28.8817 7.54484 29.1375 7.78207C29.3932 8.0193 29.5487 8.34407 29.5726 8.69076C29.5964 9.03745 29.4869 9.3802 29.266 9.64976C29.0451 9.91932 28.7294 10.0956 28.3827 10.143L28.1948 10.1558H8.8546C8.50459 10.1557 8.16767 10.0236 7.91192 9.78641C7.65617 9.54918 7.50065 9.22441 7.47679 8.87772C7.45294 8.53104 7.56252 8.18829 7.7834 7.91873C8.00428 7.64916 8.31998 7.47289 8.66672 7.42553L8.8546 7.41272H28.1948Z" fill="#247BA0"/>
</svg>
