<svg width="34" height="35" viewBox="0 0 34 35" fill="none" xmlns="http://www.w3.org/2000/svg">
<path d="M16.9835 0.421082C7.7835 0.421082 0.333496 8.08424 0.333496 17.5263C0.333496 26.9684 7.7835 34.6316 16.9835 34.6316C26.2002 34.6316 33.6668 26.9684 33.6668 17.5263C33.6668 8.08424 26.2002 0.421082 16.9835 0.421082ZM17.0002 31.2106C9.6335 31.2106 3.66683 25.0869 3.66683 17.5263C3.66683 9.96582 9.6335 3.84213 17.0002 3.84213C24.3668 3.84213 30.3335 9.96582 30.3335 17.5263C30.3335 25.0869 24.3668 31.2106 17.0002 31.2106Z" fill="#247BA0"/>
<path d="M17.8335 8.97369H15.3335V19.2369L24.0835 24.625L25.3335 22.5211L17.8335 17.954V8.97369Z" fill="#247BA0"/>
</svg>
